<svg xmlns="http://www.w3.org/2000/svg" xmlns:xlink="http://www.w3.org/1999/xlink" width="1000" zoomAndPan="magnify" viewBox="0 0 750 191.999996" height="256" preserveAspectRatio="xMidYMid meet" version="1.0"><defs><g/><clipPath id="c11b0be9a6"><path d="M 40.445312 19.199219 L 194.046875 19.199219 L 194.046875 172.800781 L 40.445312 172.800781 Z M 40.445312 19.199219 " clip-rule="nonzero"/></clipPath><clipPath id="0c7bb49c85"><path d="M 117.246094 19.199219 C 74.832031 19.199219 40.445312 53.585938 40.445312 96 C 40.445312 138.414062 74.832031 172.800781 117.246094 172.800781 C 159.664062 172.800781 194.046875 138.414062 194.046875 96 C 194.046875 53.585938 159.664062 19.199219 117.246094 19.199219 " clip-rule="nonzero"/></clipPath><clipPath id="09a1f8e5fd"><path d="M 77.671875 38.175781 L 116 38.175781 L 116 82 L 77.671875 82 Z M 77.671875 38.175781 " clip-rule="nonzero"/></clipPath><clipPath id="82f6110a7f"><path d="M 77.671875 38.175781 L 157.171875 38.175781 L 157.171875 153.675781 L 77.671875 153.675781 Z M 77.671875 38.175781 " clip-rule="nonzero"/></clipPath><clipPath id="072508a1ca"><path d="M 133.78125 111.359375 L 179.863281 111.359375 L 179.863281 157.441406 L 133.78125 157.441406 Z M 133.78125 111.359375 " clip-rule="nonzero"/></clipPath><clipPath id="2e0eb6010a"><path d="M 156.824219 111.359375 C 144.097656 111.359375 133.78125 121.675781 133.78125 134.398438 C 133.78125 147.125 144.097656 157.441406 156.824219 157.441406 C 169.546875 157.441406 179.863281 147.125 179.863281 134.398438 C 179.863281 121.675781 169.546875 111.359375 156.824219 111.359375 " clip-rule="nonzero"/></clipPath><clipPath id="d310d4d4c6"><path d="M 139.21875 114.078125 L 177.46875 114.078125 L 177.46875 152.328125 L 139.21875 152.328125 Z M 139.21875 114.078125 " clip-rule="nonzero"/></clipPath><clipPath id="e4bd451b12"><path d="M 55.808594 107.742188 L 105.539062 107.742188 L 105.539062 157.441406 L 55.808594 157.441406 Z M 55.808594 107.742188 " clip-rule="nonzero"/></clipPath></defs><g clip-path="url(#c11b0be9a6)"><g clip-path="url(#0c7bb49c85)"><path fill="#e8e8e8" d="M 40.445312 19.199219 L 194.046875 19.199219 L 194.046875 172.800781 L 40.445312 172.800781 Z M 40.445312 19.199219 " fill-opacity="1" fill-rule="nonzero"/></g></g><g clip-path="url(#09a1f8e5fd)"><path fill="#545454" d="M 111.914062 81.746094 L 111.914062 71.585938 C 111.914062 70.285156 113.214844 69.175781 115.082031 68.652344 L 115.082031 38.207031 C 94.238281 39.320312 77.703125 55.222656 77.703125 74.683594 L 77.703125 81.746094 Z M 111.914062 81.746094 " fill-opacity="1" fill-rule="nonzero"/></g><g clip-path="url(#82f6110a7f)"><path fill="#545454" d="M 119.085938 38.175781 L 119.085938 68.503906 C 121.308594 68.921875 122.929688 70.132812 122.929688 71.585938 L 122.929688 81.746094 L 156.875 81.746094 L 156.875 85.722656 L 122.929688 85.722656 L 122.929688 93.574219 C 122.929688 95.371094 120.46875 96.824219 117.421875 96.824219 C 114.378906 96.824219 111.914062 95.371094 111.914062 93.574219 L 111.914062 85.722656 L 77.703125 85.722656 L 77.703125 117.128906 C 77.703125 137.316406 95.488281 153.675781 117.417969 153.675781 C 139.359375 153.675781 157.136719 137.316406 157.136719 117.128906 L 157.136719 74.683594 C 157.136719 55.011719 140.25 38.980469 119.085938 38.175781 Z M 119.085938 38.175781 " fill-opacity="1" fill-rule="nonzero"/></g><path fill="#545454" d="M 114.53125 73.613281 C 114.53125 72.148438 115.824219 70.964844 117.421875 70.964844 C 119.019531 70.964844 120.3125 72.148438 120.3125 73.613281 L 120.3125 91.546875 C 120.3125 93.007812 119.019531 94.195312 117.421875 94.195312 C 115.824219 94.195312 114.53125 93.007812 114.53125 91.546875 Z M 114.53125 73.613281 " fill-opacity="1" fill-rule="nonzero"/><g clip-path="url(#072508a1ca)"><g clip-path="url(#2e0eb6010a)"><path fill="#737373" d="M 133.78125 111.359375 L 179.863281 111.359375 L 179.863281 157.441406 L 133.78125 157.441406 Z M 133.78125 111.359375 " fill-opacity="1" fill-rule="nonzero"/></g></g><g clip-path="url(#d310d4d4c6)"><path fill="#000000" d="M 166.980469 146.925781 C 164.105469 149.382812 160.445312 150.738281 156.675781 150.738281 C 151.382812 150.738281 146.535156 148.121094 143.59375 143.8125 L 148.535156 145.15625 C 148.964844 145.28125 149.394531 145.023438 149.507812 144.601562 C 149.621094 144.175781 149.375 143.742188 148.953125 143.625 L 142.183594 141.785156 C 142.035156 141.722656 141.878906 141.707031 141.71875 141.734375 C 141.699219 141.738281 141.679688 141.75 141.65625 141.753906 C 141.609375 141.769531 141.554688 141.769531 141.507812 141.796875 C 141.480469 141.808594 141.464844 141.832031 141.445312 141.847656 C 141.421875 141.859375 141.398438 141.859375 141.375 141.875 C 141.347656 141.898438 141.332031 141.929688 141.304688 141.957031 C 141.28125 141.980469 141.261719 142.007812 141.238281 142.035156 C 141.136719 142.164062 141.058594 142.316406 141.050781 142.484375 L 140.804688 149.125 C 140.789062 149.5625 141.128906 149.929688 141.566406 149.945312 L 141.597656 149.945312 C 142.023438 149.945312 142.375 149.609375 142.390625 149.183594 L 142.546875 145.089844 C 145.800781 149.605469 151.007812 152.328125 156.675781 152.328125 C 160.824219 152.328125 164.847656 150.839844 168.007812 148.132812 C 168.34375 147.847656 168.382812 147.347656 168.097656 147.011719 C 167.8125 146.679688 167.316406 146.644531 166.980469 146.925781 Z M 141.082031 137.761719 C 140.898438 136.753906 140.804688 135.808594 140.804688 134.867188 C 140.804688 126.515625 147.296875 119.664062 155.496094 119.058594 L 152.148438 122.40625 C 151.839844 122.714844 151.839844 123.21875 152.148438 123.527344 C 152.304688 123.679688 152.507812 123.757812 152.710938 123.757812 C 152.914062 123.757812 153.117188 123.679688 153.269531 123.527344 L 157.890625 118.90625 C 158.050781 118.800781 158.167969 118.648438 158.21875 118.457031 C 158.222656 118.445312 158.226562 118.433594 158.226562 118.425781 C 158.238281 118.375 158.261719 118.332031 158.265625 118.28125 C 158.265625 118.242188 158.25 118.207031 158.246094 118.171875 C 158.246094 118.136719 158.261719 118.105469 158.253906 118.074219 C 158.25 118.046875 158.226562 118.023438 158.21875 117.996094 C 158.210938 117.972656 158.203125 117.953125 158.191406 117.9375 C 158.125 117.75 158.007812 117.585938 157.824219 117.496094 L 151.476562 114.320312 C 151.085938 114.128906 150.609375 114.285156 150.410156 114.675781 C 150.214844 115.066406 150.375 115.542969 150.765625 115.742188 L 154.429688 117.570312 C 145.863281 118.679688 139.21875 126.007812 139.21875 134.867188 C 139.21875 135.90625 139.316406 136.949219 139.523438 138.050781 C 139.59375 138.433594 139.925781 138.703125 140.300781 138.703125 C 140.347656 138.703125 140.398438 138.699219 140.449219 138.6875 C 140.878906 138.609375 141.164062 138.195312 141.082031 137.761719 Z M 177.199219 140.015625 C 176.972656 139.640625 176.480469 139.519531 176.113281 139.742188 L 172.6875 141.785156 C 173.632812 139.609375 174.136719 137.261719 174.136719 134.867188 C 174.136719 127.5 169.457031 120.890625 162.496094 118.425781 C 162.082031 118.28125 161.632812 118.496094 161.484375 118.910156 C 161.339844 119.320312 161.554688 119.773438 161.96875 119.921875 C 168.296875 122.160156 172.550781 128.167969 172.550781 134.867188 C 172.550781 137.191406 172.03125 139.464844 171.054688 141.554688 L 170.152344 137.09375 C 170.066406 136.664062 169.644531 136.382812 169.21875 136.472656 C 168.789062 136.558594 168.507812 136.976562 168.597656 137.40625 L 169.90625 143.894531 C 169.914062 144.074219 169.972656 144.246094 170.09375 144.382812 C 170.097656 144.386719 170.101562 144.386719 170.101562 144.390625 C 170.148438 144.445312 170.191406 144.5 170.253906 144.539062 C 170.277344 144.550781 170.300781 144.546875 170.320312 144.558594 C 170.347656 144.574219 170.363281 144.601562 170.394531 144.613281 C 170.496094 144.660156 170.605469 144.683594 170.714844 144.683594 C 170.855469 144.683594 170.996094 144.644531 171.121094 144.570312 L 176.925781 141.105469 C 177.300781 140.878906 177.425781 140.394531 177.199219 140.015625 Z M 177.199219 140.015625 " fill-opacity="1" fill-rule="nonzero"/></g><g clip-path="url(#e4bd451b12)"><path fill="#737373" d="M 55.808594 107.742188 L 105.488281 107.742188 L 105.488281 157.421875 L 55.808594 157.421875 Z M 55.808594 107.742188 " fill-opacity="1" fill-rule="nonzero"/></g><g fill="#000000" fill-opacity="1"><g transform="translate(52.15662, 149.999991)"><g><path d="M 39.703125 -40.53125 C 42.003906 -41.40625 44.6875 -40.894531 47.75 -39 C 49.09375 -37.9375 49.875 -36.515625 50.09375 -34.734375 C 50.164062 -31.890625 50.148438 -28.988281 50.046875 -26.03125 C 49.972656 -17.757812 50.191406 -9.832031 50.703125 -2.25 C 50.515625 0.925781 49.09375 2.953125 46.4375 3.828125 C 44.789062 4.085938 43.296875 3.46875 41.953125 1.96875 C 40.453125 -0.363281 39.773438 -3.71875 39.921875 -8.09375 C 40.503906 -12.320312 41.21875 -16.570312 42.0625 -20.84375 C 42.132812 -21.789062 42.023438 -22.300781 41.734375 -22.375 C 40.859375 -22.257812 40.421875 -21.785156 40.421875 -20.953125 C 39.429688 -18.109375 38.15625 -15.191406 36.59375 -12.203125 C 34.332031 -7.242188 32.582031 -2.863281 31.34375 0.9375 C 30.6875 2.9375 29.460938 3.773438 27.671875 3.453125 C 26.722656 3.160156 26.066406 2.757812 25.703125 2.25 C 24.898438 0.632812 23.753906 -2.285156 22.265625 -6.515625 C 19.890625 -12.816406 17.460938 -18.007812 14.984375 -22.09375 C 14.222656 -21.875 13.96875 -21.273438 14.21875 -20.296875 C 14.144531 -15.410156 14.75 -10.597656 16.03125 -5.859375 C 16.5 -2.359375 16.460938 0.140625 15.921875 1.640625 C 15.148438 3.941406 13.144531 4.488281 9.90625 3.28125 C 8.988281 2.84375 8.457031 2.28125 8.3125 1.59375 C 7.726562 -0.09375 7.382812 -2.191406 7.28125 -4.703125 C 7.238281 -9.921875 7.363281 -16.722656 7.65625 -25.109375 C 8.0625 -29.441406 7.734375 -33.539062 6.671875 -37.40625 C 6.054688 -39.195312 6.675781 -40.164062 8.53125 -40.3125 C 11.78125 -40.53125 14.515625 -38.832031 16.734375 -35.21875 C 17.941406 -33.394531 18.726562 -31.9375 19.09375 -30.84375 C 21.675781 -25.375 24.351562 -20.269531 27.125 -15.53125 C 27.34375 -14.875 27.707031 -14.566406 28.21875 -14.609375 C 28.4375 -14.640625 28.859375 -15.1875 29.484375 -16.25 C 32.546875 -21.789062 35.390625 -27.625 38.015625 -33.75 C 38.671875 -35.0625 39.050781 -36.519531 39.15625 -38.125 C 39.300781 -39.507812 39.484375 -40.3125 39.703125 -40.53125 Z M 39.703125 -40.53125 "/></g></g></g><g fill="#545454" fill-opacity="1"><g transform="translate(202.325386, 150.261991)"><g><path d="M 12.1875 -16.53125 L 3.640625 -16.34375 L 3.296875 -10.609375 C 4.367188 -11.054688 5.554688 -11.28125 6.859375 -11.28125 C 8.742188 -11.28125 10.132812 -10.742188 11.03125 -9.671875 C 11.925781 -8.609375 12.375 -7.316406 12.375 -5.796875 C 12.375 -4.472656 12.070312 -3.34375 11.46875 -2.40625 C 10.875 -1.476562 10.070312 -0.773438 9.0625 -0.296875 C 8.0625 0.179688 6.960938 0.421875 5.765625 0.421875 C 4.742188 0.421875 3.867188 0.253906 3.140625 -0.078125 C 2.410156 -0.421875 1.859375 -0.859375 1.484375 -1.390625 C 1.117188 -1.929688 0.9375 -2.5 0.9375 -3.09375 C 0.9375 -3.539062 1.054688 -3.898438 1.296875 -4.171875 C 1.535156 -4.453125 1.835938 -4.59375 2.203125 -4.59375 C 2.554688 -4.59375 2.835938 -4.476562 3.046875 -4.25 C 3.265625 -4.03125 3.375 -3.765625 3.375 -3.453125 C 3.375 -3.035156 3.253906 -2.679688 3.015625 -2.390625 C 3.035156 -1.816406 3.328125 -1.375 3.890625 -1.0625 C 4.453125 -0.75 5.078125 -0.59375 5.765625 -0.59375 C 7.015625 -0.59375 7.988281 -1.015625 8.6875 -1.859375 C 9.394531 -2.710938 9.765625 -3.75 9.796875 -4.96875 L 9.828125 -5.609375 C 9.828125 -6.859375 9.550781 -7.921875 9 -8.796875 C 8.457031 -9.671875 7.445312 -10.109375 5.96875 -10.109375 C 5.488281 -10.109375 4.96875 -10.035156 4.40625 -9.890625 C 3.851562 -9.742188 3.335938 -9.519531 2.859375 -9.21875 L 2.15625 -9.875 L 2.578125 -18.1875 L 9.171875 -18.1875 C 10.128906 -18.1875 10.8125 -18.320312 11.21875 -18.59375 C 11.632812 -18.863281 11.863281 -19.289062 11.90625 -19.875 L 12.578125 -19.875 Z M 12.1875 -16.53125 "/></g></g></g><g fill="#545454" fill-opacity="1"><g transform="translate(226.067674, 150.261991)"><g><path d="M 5.953125 -2.828125 C 5.910156 -1.960938 5.859375 -1.367188 5.796875 -1.046875 L 7.984375 -1.140625 L 7.921875 0 L 1.484375 0 L 1.5 -0.859375 C 2.351562 -0.890625 2.960938 -1.148438 3.328125 -1.640625 C 3.691406 -2.140625 3.890625 -2.863281 3.921875 -3.8125 L 4.5 -16.078125 L 4.4375 -16.078125 L 1.265625 -14.078125 L 0.8125 -14.859375 L 5.875 -18.609375 L 6.75 -18.609375 Z M 5.953125 -2.828125 "/></g></g></g><g fill="#545454" fill-opacity="1"><g transform="translate(245.421235, 150.261991)"><g><path d="M 8.3125 -18.609375 C 10.40625 -18.609375 11.925781 -17.765625 12.875 -16.078125 C 13.832031 -14.398438 14.3125 -12.367188 14.3125 -9.984375 C 14.3125 -9.578125 14.304688 -9.28125 14.296875 -9.09375 C 14.203125 -7.519531 13.90625 -6.007812 13.40625 -4.5625 C 12.90625 -3.113281 12.15625 -1.921875 11.15625 -0.984375 C 10.164062 -0.046875 8.929688 0.421875 7.453125 0.421875 C 5.273438 0.421875 3.722656 -0.382812 2.796875 -2 C 1.867188 -3.625 1.40625 -5.632812 1.40625 -8.03125 C 1.40625 -8.5 1.410156 -8.851562 1.421875 -9.09375 C 1.492188 -10.664062 1.785156 -12.175781 2.296875 -13.625 C 2.804688 -15.070312 3.566406 -16.265625 4.578125 -17.203125 C 5.597656 -18.140625 6.84375 -18.609375 8.3125 -18.609375 Z M 8.359375 -17.625 C 6.992188 -17.625 5.941406 -16.832031 5.203125 -15.25 C 4.472656 -13.675781 4.046875 -11.78125 3.921875 -9.5625 C 3.898438 -9.28125 3.890625 -8.835938 3.890625 -8.234375 C 3.890625 -6.117188 4.164062 -4.316406 4.71875 -2.828125 C 5.28125 -1.335938 6.226562 -0.59375 7.5625 -0.59375 C 8.914062 -0.59375 9.925781 -1.363281 10.59375 -2.90625 C 11.257812 -4.445312 11.648438 -6.34375 11.765625 -8.59375 C 11.804688 -9.289062 11.828125 -9.804688 11.828125 -10.140625 C 11.828125 -12.296875 11.5625 -14.082031 11.03125 -15.5 C 10.5 -16.914062 9.609375 -17.625 8.359375 -17.625 Z M 8.359375 -17.625 "/></g></g></g><g fill="#545454" fill-opacity="1"><g transform="translate(271.085216, 150.261991)"><g><path d="M 7.203125 -18.609375 C 8.742188 -18.609375 10.003906 -18.226562 10.984375 -17.46875 C 11.960938 -16.71875 12.40625 -15.53125 12.3125 -13.90625 C 12.195312 -11.90625 10.414062 -9.570312 6.96875 -6.90625 C 5.664062 -5.925781 4.640625 -5.03125 3.890625 -4.21875 C 3.148438 -3.414062 2.691406 -2.648438 2.515625 -1.921875 L 7.046875 -1.796875 C 7.421875 -1.773438 7.945312 -1.765625 8.625 -1.765625 C 9.582031 -1.765625 10.289062 -1.882812 10.75 -2.125 C 11.207031 -2.375 11.453125 -2.859375 11.484375 -3.578125 L 12.296875 -3.578125 L 11.921875 0 L 0.703125 0 C 0.753906 -1.019531 0.984375 -1.929688 1.390625 -2.734375 C 1.796875 -3.546875 2.289062 -4.257812 2.875 -4.875 C 3.46875 -5.488281 4.285156 -6.242188 5.328125 -7.140625 L 6.234375 -7.921875 C 7.273438 -8.878906 8.117188 -9.851562 8.765625 -10.84375 C 9.421875 -11.84375 9.765625 -12.75 9.796875 -13.5625 C 9.847656 -14.757812 9.632812 -15.726562 9.15625 -16.46875 C 8.675781 -17.21875 7.867188 -17.59375 6.734375 -17.59375 C 6.035156 -17.59375 5.394531 -17.414062 4.8125 -17.0625 C 4.238281 -16.71875 3.835938 -16.28125 3.609375 -15.75 C 3.867188 -15.46875 4 -15.09375 4 -14.625 C 4 -14.300781 3.882812 -14.015625 3.65625 -13.765625 C 3.4375 -13.523438 3.144531 -13.40625 2.78125 -13.40625 C 2.4375 -13.40625 2.144531 -13.523438 1.90625 -13.765625 C 1.675781 -14.015625 1.5625 -14.328125 1.5625 -14.703125 C 1.5625 -15.296875 1.789062 -15.894531 2.25 -16.5 C 2.707031 -17.101562 3.363281 -17.601562 4.21875 -18 C 5.082031 -18.40625 6.078125 -18.609375 7.203125 -18.609375 Z M 7.203125 -18.609375 "/></g></g></g><g fill="#545454" fill-opacity="1"><g transform="translate(294.879438, 150.261991)"><g><path d="M 8.3125 -18.609375 C 10.40625 -18.609375 11.925781 -17.765625 12.875 -16.078125 C 13.832031 -14.398438 14.3125 -12.367188 14.3125 -9.984375 C 14.3125 -9.578125 14.304688 -9.28125 14.296875 -9.09375 C 14.203125 -7.519531 13.90625 -6.007812 13.40625 -4.5625 C 12.90625 -3.113281 12.15625 -1.921875 11.15625 -0.984375 C 10.164062 -0.046875 8.929688 0.421875 7.453125 0.421875 C 5.273438 0.421875 3.722656 -0.382812 2.796875 -2 C 1.867188 -3.625 1.40625 -5.632812 1.40625 -8.03125 C 1.40625 -8.5 1.410156 -8.851562 1.421875 -9.09375 C 1.492188 -10.664062 1.785156 -12.175781 2.296875 -13.625 C 2.804688 -15.070312 3.566406 -16.265625 4.578125 -17.203125 C 5.597656 -18.140625 6.84375 -18.609375 8.3125 -18.609375 Z M 8.359375 -17.625 C 6.992188 -17.625 5.941406 -16.832031 5.203125 -15.25 C 4.472656 -13.675781 4.046875 -11.78125 3.921875 -9.5625 C 3.898438 -9.28125 3.890625 -8.835938 3.890625 -8.234375 C 3.890625 -6.117188 4.164062 -4.316406 4.71875 -2.828125 C 5.28125 -1.335938 6.226562 -0.59375 7.5625 -0.59375 C 8.914062 -0.59375 9.925781 -1.363281 10.59375 -2.90625 C 11.257812 -4.445312 11.648438 -6.34375 11.765625 -8.59375 C 11.804688 -9.289062 11.828125 -9.804688 11.828125 -10.140625 C 11.828125 -12.296875 11.5625 -14.082031 11.03125 -15.5 C 10.5 -16.914062 9.609375 -17.625 8.359375 -17.625 Z M 8.359375 -17.625 "/></g></g></g><g fill="#545454" fill-opacity="1"><g transform="translate(320.543419, 150.261991)"><g><path d="M 7.90625 -18.609375 C 8.769531 -18.609375 9.578125 -18.453125 10.328125 -18.140625 C 11.078125 -17.835938 11.679688 -17.390625 12.140625 -16.796875 C 12.609375 -16.210938 12.84375 -15.507812 12.84375 -14.6875 C 12.84375 -13.707031 12.476562 -12.785156 11.75 -11.921875 C 11.03125 -11.054688 10.15625 -10.359375 9.125 -9.828125 C 10.332031 -9.097656 11.300781 -8.265625 12.03125 -7.328125 C 12.757812 -6.390625 13.097656 -5.394531 13.046875 -4.34375 C 12.972656 -2.78125 12.363281 -1.59375 11.21875 -0.78125 C 10.082031 0.0195312 8.691406 0.421875 7.046875 0.421875 C 5.453125 0.421875 4.125 0.09375 3.0625 -0.5625 C 2.007812 -1.226562 1.484375 -2.269531 1.484375 -3.6875 C 1.484375 -4.800781 1.867188 -5.84375 2.640625 -6.8125 C 3.410156 -7.789062 4.398438 -8.644531 5.609375 -9.375 C 4.460938 -10.070312 3.601562 -10.804688 3.03125 -11.578125 C 2.46875 -12.347656 2.203125 -13.113281 2.234375 -13.875 C 2.285156 -14.914062 2.59375 -15.789062 3.15625 -16.5 C 3.71875 -17.207031 4.414062 -17.734375 5.25 -18.078125 C 6.09375 -18.429688 6.976562 -18.609375 7.90625 -18.609375 Z M 7.90625 -17.59375 C 7.226562 -17.59375 6.632812 -17.4375 6.125 -17.125 C 5.613281 -16.8125 5.21875 -16.398438 4.9375 -15.890625 C 4.65625 -15.378906 4.515625 -14.835938 4.515625 -14.265625 C 4.515625 -13.484375 4.820312 -12.753906 5.4375 -12.078125 C 6.050781 -11.398438 6.96875 -10.8125 8.1875 -10.3125 C 8.976562 -10.832031 9.613281 -11.453125 10.09375 -12.171875 C 10.570312 -12.890625 10.828125 -13.5625 10.859375 -14.1875 C 10.929688 -15.257812 10.691406 -16.09375 10.140625 -16.6875 C 9.597656 -17.289062 8.851562 -17.59375 7.90625 -17.59375 Z M 6.5 -8.890625 C 5.488281 -8.210938 4.757812 -7.421875 4.3125 -6.515625 C 3.863281 -5.617188 3.640625 -4.78125 3.640625 -4 C 3.640625 -2.90625 3.941406 -2.066406 4.546875 -1.484375 C 5.148438 -0.910156 6.015625 -0.625 7.140625 -0.625 C 8.160156 -0.625 9 -0.957031 9.65625 -1.625 C 10.320312 -2.289062 10.65625 -3.125 10.65625 -4.125 C 10.65625 -5.0625 10.332031 -5.90625 9.6875 -6.65625 C 9.050781 -7.414062 8.160156 -8.070312 7.015625 -8.625 C 6.773438 -8.726562 6.601562 -8.816406 6.5 -8.890625 Z M 6.5 -8.890625 "/></g></g></g><g fill="#545454" fill-opacity="1"><g transform="translate(345.341002, 150.261991)"><g/></g></g><g fill="#545454" fill-opacity="1"><g transform="translate(362.331403, 150.261991)"><g/></g></g><g fill="#545454" fill-opacity="1"><g transform="translate(379.31366, 150.261991)"><g><path d="M 7.71875 -18.234375 C 10.207031 -18.234375 12.078125 -17.804688 13.328125 -16.953125 C 14.578125 -16.097656 15.203125 -14.828125 15.203125 -13.140625 C 15.179688 -12.109375 14.910156 -11.117188 14.390625 -10.171875 C 13.867188 -9.222656 12.957031 -8.425781 11.65625 -7.78125 C 10.363281 -7.144531 8.609375 -6.828125 6.390625 -6.828125 C 5.941406 -6.828125 5.601562 -6.835938 5.375 -6.859375 L 5.171875 -3.09375 C 5.117188 -2.101562 5.054688 -1.421875 4.984375 -1.046875 L 7.375 -1.171875 L 7.328125 0 L 1.0625 0 L 1.125 -0.859375 C 1.726562 -0.878906 2.160156 -1.015625 2.421875 -1.265625 C 2.691406 -1.523438 2.859375 -1.835938 2.921875 -2.203125 C 2.984375 -2.566406 3.03125 -3.179688 3.0625 -4.046875 L 3.65625 -15.28125 C 3.726562 -16.144531 3.789062 -16.769531 3.84375 -17.15625 L 1.953125 -17.046875 L 2.03125 -18.1875 C 4.457031 -18.21875 6.351562 -18.234375 7.71875 -18.234375 Z M 7.609375 -17.234375 C 7.085938 -17.234375 6.695312 -17.117188 6.4375 -16.890625 C 6.175781 -16.660156 6.007812 -16.347656 5.9375 -15.953125 C 5.863281 -15.554688 5.804688 -14.992188 5.765625 -14.265625 L 5.4375 -7.953125 C 5.863281 -7.898438 6.425781 -7.875 7.125 -7.875 C 8.15625 -7.875 9.097656 -8.082031 9.953125 -8.5 C 10.816406 -8.914062 11.5 -9.507812 12 -10.28125 C 12.507812 -11.0625 12.765625 -11.984375 12.765625 -13.046875 C 12.765625 -14.484375 12.304688 -15.539062 11.390625 -16.21875 C 10.484375 -16.894531 9.222656 -17.234375 7.609375 -17.234375 Z M 7.609375 -17.234375 "/></g></g></g><g fill="#545454" fill-opacity="1"><g transform="translate(404.97764, 150.261991)"><g><path d="M 7.328125 -13.28125 C 8.367188 -13.28125 9.234375 -13.035156 9.921875 -12.546875 C 10.617188 -12.066406 10.96875 -11.316406 10.96875 -10.296875 C 10.96875 -9.003906 10.195312 -8.003906 8.65625 -7.296875 C 7.113281 -6.585938 5.328125 -6.117188 3.296875 -5.890625 C 3.296875 -4.265625 3.535156 -3.046875 4.015625 -2.234375 C 4.503906 -1.421875 5.253906 -1.015625 6.265625 -1.015625 C 7.054688 -1.015625 7.820312 -1.273438 8.5625 -1.796875 C 9.3125 -2.328125 9.96875 -3.113281 10.53125 -4.15625 L 11.375 -3.65625 C 10.65625 -2.289062 9.84375 -1.289062 8.9375 -0.65625 C 8.039062 -0.03125 7.003906 0.28125 5.828125 0.28125 C 4.234375 0.28125 3.03125 -0.210938 2.21875 -1.203125 C 1.414062 -2.203125 1.015625 -3.578125 1.015625 -5.328125 C 1.015625 -6.734375 1.25 -8.035156 1.71875 -9.234375 C 2.195312 -10.441406 2.910156 -11.414062 3.859375 -12.15625 C 4.816406 -12.90625 5.972656 -13.28125 7.328125 -13.28125 Z M 6.96875 -12.390625 C 5.851562 -12.390625 4.992188 -11.851562 4.390625 -10.78125 C 3.785156 -9.707031 3.429688 -8.390625 3.328125 -6.828125 C 4.835938 -7.035156 6.128906 -7.453125 7.203125 -8.078125 C 8.273438 -8.703125 8.8125 -9.484375 8.8125 -10.421875 C 8.8125 -10.992188 8.648438 -11.460938 8.328125 -11.828125 C 8.003906 -12.203125 7.550781 -12.390625 6.96875 -12.390625 Z M 6.96875 -12.390625 "/></g></g></g><g fill="#545454" fill-opacity="1"><g transform="translate(427.52536, 150.261991)"><g><path d="M 10.296875 -13.28125 C 11.265625 -13.28125 11.976562 -12.96875 12.4375 -12.34375 C 12.894531 -11.71875 13.125 -10.90625 13.125 -9.90625 C 13.125 -8.738281 12.957031 -7.070312 12.625 -4.90625 C 12.4375 -3.539062 12.34375 -2.640625 12.34375 -2.203125 C 12.34375 -1.828125 12.390625 -1.535156 12.484375 -1.328125 C 12.578125 -1.117188 12.765625 -1.015625 13.046875 -1.015625 C 13.367188 -1.015625 13.703125 -1.21875 14.046875 -1.625 C 14.398438 -2.03125 14.695312 -2.664062 14.9375 -3.53125 L 15.671875 -3.359375 C 15.578125 -2.867188 15.390625 -2.34375 15.109375 -1.78125 C 14.828125 -1.21875 14.445312 -0.734375 13.96875 -0.328125 C 13.488281 0.078125 12.929688 0.28125 12.296875 0.28125 C 11.515625 0.28125 10.96875 0.078125 10.65625 -0.328125 C 10.34375 -0.734375 10.1875 -1.359375 10.1875 -2.203125 C 10.1875 -2.847656 10.300781 -3.992188 10.53125 -5.640625 C 10.832031 -7.753906 10.984375 -9.363281 10.984375 -10.46875 C 10.984375 -10.863281 10.894531 -11.226562 10.71875 -11.5625 C 10.539062 -11.894531 10.222656 -12.0625 9.765625 -12.0625 C 9.003906 -12.0625 8.222656 -11.484375 7.421875 -10.328125 C 6.628906 -9.171875 5.96875 -7.75 5.4375 -6.0625 C 4.914062 -4.375 4.65625 -2.8125 4.65625 -1.375 C 4.65625 -1.050781 4.671875 -0.59375 4.703125 0 L 2.515625 0 C 2.503906 -0.15625 2.5 -0.378906 2.5 -0.671875 C 2.5 -1.085938 2.535156 -1.664062 2.609375 -2.40625 C 2.691406 -3.15625 2.8125 -4.140625 2.96875 -5.359375 C 2.96875 -5.460938 2.984375 -5.632812 3.015625 -5.875 C 3.035156 -6.09375 3.0625 -6.320312 3.09375 -6.5625 C 3.125 -6.8125 3.148438 -7.054688 3.171875 -7.296875 C 3.296875 -8.359375 3.382812 -9.128906 3.4375 -9.609375 C 3.488281 -10.097656 3.515625 -10.5 3.515625 -10.8125 C 3.515625 -11.175781 3.460938 -11.460938 3.359375 -11.671875 C 3.265625 -11.878906 3.082031 -11.984375 2.8125 -11.984375 C 2.476562 -11.984375 2.132812 -11.773438 1.78125 -11.359375 C 1.4375 -10.941406 1.144531 -10.304688 0.90625 -9.453125 L 0.1875 -9.609375 C 0.269531 -10.097656 0.453125 -10.628906 0.734375 -11.203125 C 1.023438 -11.773438 1.40625 -12.265625 1.875 -12.671875 C 2.351562 -13.078125 2.914062 -13.28125 3.5625 -13.28125 C 4.863281 -13.28125 5.515625 -12.390625 5.515625 -10.609375 C 5.515625 -10.097656 5.460938 -9.546875 5.359375 -8.953125 C 5.265625 -8.359375 5.175781 -7.828125 5.09375 -7.359375 L 5.171875 -7.359375 C 6.003906 -9.566406 6.832031 -11.101562 7.65625 -11.96875 C 8.476562 -12.84375 9.359375 -13.28125 10.296875 -13.28125 Z M 10.296875 -13.28125 "/></g></g></g><g fill="#545454" fill-opacity="1"><g transform="translate(453.656775, 150.261991)"><g><path d="M 8.578125 -13.28125 C 9.179688 -13.28125 9.78125 -13.238281 10.375 -13.15625 C 10.976562 -13.082031 11.476562 -12.976562 11.875 -12.84375 C 11.789062 -11.414062 11.566406 -8.570312 11.203125 -4.3125 L 10.859375 -0.359375 C 10.648438 2.097656 9.972656 3.945312 8.828125 5.1875 C 7.691406 6.425781 6.148438 7.046875 4.203125 7.046875 C 3.703125 7.046875 3.15625 6.972656 2.5625 6.828125 C 1.976562 6.691406 1.46875 6.457031 1.03125 6.125 C 0.601562 5.800781 0.378906 5.378906 0.359375 4.859375 C 0.359375 4.492188 0.472656 4.179688 0.703125 3.921875 C 0.941406 3.660156 1.234375 3.53125 1.578125 3.53125 C 1.910156 3.53125 2.1875 3.632812 2.40625 3.84375 C 2.632812 4.050781 2.75 4.347656 2.75 4.734375 C 2.75 4.953125 2.695312 5.175781 2.59375 5.40625 C 2.75 5.644531 3 5.820312 3.34375 5.9375 C 3.695312 6.0625 4.046875 6.125 4.390625 6.125 C 5.617188 6.125 6.554688 5.703125 7.203125 4.859375 C 7.859375 4.023438 8.296875 3.019531 8.515625 1.84375 C 8.742188 0.664062 8.9375 -0.859375 9.09375 -2.734375 C 9.195312 -4.015625 9.289062 -4.945312 9.375 -5.53125 L 9.296875 -5.53125 C 8.640625 -3.257812 7.910156 -1.722656 7.109375 -0.921875 C 6.316406 -0.117188 5.445312 0.28125 4.5 0.28125 C 3.332031 0.28125 2.453125 -0.175781 1.859375 -1.09375 C 1.273438 -2.007812 0.984375 -3.226562 0.984375 -4.75 C 0.984375 -6.289062 1.257812 -7.707031 1.8125 -9 C 2.375 -10.289062 3.222656 -11.328125 4.359375 -12.109375 C 5.503906 -12.890625 6.910156 -13.28125 8.578125 -13.28125 Z M 8.15625 -12.34375 C 6.976562 -12.34375 6.007812 -11.96875 5.25 -11.21875 C 4.5 -10.476562 3.960938 -9.566406 3.640625 -8.484375 C 3.328125 -7.398438 3.171875 -6.304688 3.171875 -5.203125 C 3.171875 -3.898438 3.316406 -2.863281 3.609375 -2.09375 C 3.898438 -1.320312 4.378906 -0.9375 5.046875 -0.9375 C 5.804688 -0.9375 6.546875 -1.53125 7.265625 -2.71875 C 7.984375 -3.90625 8.578125 -5.367188 9.046875 -7.109375 C 9.515625 -8.847656 9.789062 -10.476562 9.875 -12 C 9.425781 -12.226562 8.851562 -12.34375 8.15625 -12.34375 Z M 8.15625 -12.34375 "/></g></g></g><g fill="#545454" fill-opacity="1"><g transform="translate(477.269219, 150.261991)"><g><path d="M 3.453125 -13.28125 C 4.148438 -13.28125 4.675781 -13.0625 5.03125 -12.625 C 5.382812 -12.195312 5.5625 -11.570312 5.5625 -10.75 C 5.5625 -10.132812 5.421875 -8.835938 5.140625 -6.859375 C 5.128906 -6.703125 5.050781 -6.113281 4.90625 -5.09375 C 4.769531 -4.082031 4.703125 -3.242188 4.703125 -2.578125 C 4.703125 -2.160156 4.789062 -1.78125 4.96875 -1.4375 C 5.15625 -1.101562 5.472656 -0.9375 5.921875 -0.9375 C 6.679688 -0.9375 7.441406 -1.507812 8.203125 -2.65625 C 8.972656 -3.8125 9.601562 -5.226562 10.09375 -6.90625 C 10.582031 -8.59375 10.828125 -10.160156 10.828125 -11.609375 C 10.828125 -11.941406 10.8125 -12.398438 10.78125 -12.984375 L 12.96875 -12.984375 C 12.976562 -12.835938 12.984375 -12.613281 12.984375 -12.3125 C 12.984375 -11.894531 12.941406 -11.253906 12.859375 -10.390625 C 12.773438 -9.523438 12.644531 -8.398438 12.46875 -7.015625 L 12.21875 -4.859375 C 12.195312 -4.628906 12.148438 -4.210938 12.078125 -3.609375 C 12.015625 -3.003906 11.984375 -2.53125 11.984375 -2.1875 C 11.984375 -1.425781 12.21875 -1.046875 12.6875 -1.046875 C 13.007812 -1.046875 13.34375 -1.25 13.6875 -1.65625 C 14.039062 -2.0625 14.335938 -2.6875 14.578125 -3.53125 L 15.3125 -3.375 C 15.21875 -2.894531 15.023438 -2.367188 14.734375 -1.796875 C 14.453125 -1.222656 14.070312 -0.734375 13.59375 -0.328125 C 13.125 0.078125 12.566406 0.28125 11.921875 0.28125 C 11.242188 0.28125 10.738281 0.0703125 10.40625 -0.34375 C 10.082031 -0.757812 9.921875 -1.328125 9.921875 -2.046875 C 9.921875 -2.816406 10.078125 -3.976562 10.390625 -5.53125 L 10.3125 -5.53125 C 9.476562 -3.300781 8.679688 -1.773438 7.921875 -0.953125 C 7.160156 -0.128906 6.320312 0.28125 5.40625 0.28125 C 4.4375 0.28125 3.722656 -0.03125 3.265625 -0.65625 C 2.804688 -1.289062 2.578125 -2.101562 2.578125 -3.09375 C 2.578125 -3.832031 2.617188 -4.582031 2.703125 -5.34375 C 2.785156 -6.113281 2.914062 -7.035156 3.09375 -8.109375 C 3.125 -8.296875 3.179688 -8.695312 3.265625 -9.3125 C 3.359375 -9.925781 3.40625 -10.40625 3.40625 -10.75 C 3.40625 -11.15625 3.359375 -11.460938 3.265625 -11.671875 C 3.171875 -11.878906 2.984375 -11.984375 2.703125 -11.984375 C 2.390625 -11.984375 2.066406 -11.773438 1.734375 -11.359375 C 1.410156 -10.953125 1.128906 -10.316406 0.890625 -9.453125 L 0.15625 -9.609375 C 0.3125 -10.460938 0.671875 -11.285156 1.234375 -12.078125 C 1.796875 -12.878906 2.535156 -13.28125 3.453125 -13.28125 Z M 3.453125 -13.28125 "/></g></g></g><g fill="#545454" fill-opacity="1"><g transform="translate(502.829322, 150.261991)"><g><path d="M 4.9375 -18.890625 C 5.332031 -18.890625 5.660156 -18.75 5.921875 -18.46875 C 6.179688 -18.195312 6.3125 -17.84375 6.3125 -17.40625 C 6.3125 -16.976562 6.171875 -16.628906 5.890625 -16.359375 C 5.617188 -16.085938 5.289062 -15.953125 4.90625 -15.953125 C 4.53125 -15.953125 4.207031 -16.085938 3.9375 -16.359375 C 3.664062 -16.628906 3.53125 -16.976562 3.53125 -17.40625 C 3.53125 -17.84375 3.664062 -18.195312 3.9375 -18.46875 C 4.21875 -18.75 4.550781 -18.890625 4.9375 -18.890625 Z M 3.453125 -13.28125 C 4.160156 -13.28125 4.703125 -13.035156 5.078125 -12.546875 C 5.453125 -12.066406 5.640625 -11.410156 5.640625 -10.578125 C 5.640625 -9.898438 5.492188 -8.710938 5.203125 -7.015625 C 5.023438 -5.921875 4.890625 -5.003906 4.796875 -4.265625 C 4.703125 -3.535156 4.65625 -2.816406 4.65625 -2.109375 C 4.65625 -1.378906 4.921875 -1.015625 5.453125 -1.015625 C 5.785156 -1.015625 6.125 -1.222656 6.46875 -1.640625 C 6.8125 -2.054688 7.109375 -2.6875 7.359375 -3.53125 L 8.078125 -3.375 C 7.867188 -2.4375 7.492188 -1.59375 6.953125 -0.84375 C 6.421875 -0.09375 5.722656 0.28125 4.859375 0.28125 C 3.296875 0.28125 2.515625 -0.53125 2.515625 -2.15625 C 2.515625 -2.832031 2.554688 -3.488281 2.640625 -4.125 C 2.734375 -4.769531 2.867188 -5.566406 3.046875 -6.515625 C 3.210938 -7.578125 3.332031 -8.394531 3.40625 -8.96875 C 3.488281 -9.550781 3.53125 -10.164062 3.53125 -10.8125 C 3.53125 -11.101562 3.472656 -11.367188 3.359375 -11.609375 C 3.253906 -11.859375 3.070312 -11.984375 2.8125 -11.984375 C 2.476562 -11.984375 2.132812 -11.773438 1.78125 -11.359375 C 1.4375 -10.941406 1.144531 -10.304688 0.90625 -9.453125 L 0.1875 -9.609375 C 0.34375 -10.460938 0.695312 -11.285156 1.25 -12.078125 C 1.800781 -12.878906 2.535156 -13.28125 3.453125 -13.28125 Z M 3.453125 -13.28125 "/></g></g></g><g fill="#545454" fill-opacity="1"><g transform="translate(521.403825, 150.261991)"><g><path d="M 10.296875 -13.28125 C 11.265625 -13.28125 11.976562 -12.96875 12.4375 -12.34375 C 12.894531 -11.71875 13.125 -10.90625 13.125 -9.90625 C 13.125 -8.738281 12.957031 -7.070312 12.625 -4.90625 C 12.4375 -3.539062 12.34375 -2.640625 12.34375 -2.203125 C 12.34375 -1.828125 12.390625 -1.535156 12.484375 -1.328125 C 12.578125 -1.117188 12.765625 -1.015625 13.046875 -1.015625 C 13.367188 -1.015625 13.703125 -1.21875 14.046875 -1.625 C 14.398438 -2.03125 14.695312 -2.664062 14.9375 -3.53125 L 15.671875 -3.359375 C 15.578125 -2.867188 15.390625 -2.34375 15.109375 -1.78125 C 14.828125 -1.21875 14.445312 -0.734375 13.96875 -0.328125 C 13.488281 0.078125 12.929688 0.28125 12.296875 0.28125 C 11.515625 0.28125 10.96875 0.078125 10.65625 -0.328125 C 10.34375 -0.734375 10.1875 -1.359375 10.1875 -2.203125 C 10.1875 -2.847656 10.300781 -3.992188 10.53125 -5.640625 C 10.832031 -7.753906 10.984375 -9.363281 10.984375 -10.46875 C 10.984375 -10.863281 10.894531 -11.226562 10.71875 -11.5625 C 10.539062 -11.894531 10.222656 -12.0625 9.765625 -12.0625 C 9.003906 -12.0625 8.222656 -11.484375 7.421875 -10.328125 C 6.628906 -9.171875 5.96875 -7.75 5.4375 -6.0625 C 4.914062 -4.375 4.65625 -2.8125 4.65625 -1.375 C 4.65625 -1.050781 4.671875 -0.59375 4.703125 0 L 2.515625 0 C 2.503906 -0.15625 2.5 -0.378906 2.5 -0.671875 C 2.5 -1.085938 2.535156 -1.664062 2.609375 -2.40625 C 2.691406 -3.15625 2.8125 -4.140625 2.96875 -5.359375 C 2.96875 -5.460938 2.984375 -5.632812 3.015625 -5.875 C 3.035156 -6.09375 3.0625 -6.320312 3.09375 -6.5625 C 3.125 -6.8125 3.148438 -7.054688 3.171875 -7.296875 C 3.296875 -8.359375 3.382812 -9.128906 3.4375 -9.609375 C 3.488281 -10.097656 3.515625 -10.5 3.515625 -10.8125 C 3.515625 -11.175781 3.460938 -11.460938 3.359375 -11.671875 C 3.265625 -11.878906 3.082031 -11.984375 2.8125 -11.984375 C 2.476562 -11.984375 2.132812 -11.773438 1.78125 -11.359375 C 1.4375 -10.941406 1.144531 -10.304688 0.90625 -9.453125 L 0.1875 -9.609375 C 0.269531 -10.097656 0.453125 -10.628906 0.734375 -11.203125 C 1.023438 -11.773438 1.40625 -12.265625 1.875 -12.671875 C 2.351562 -13.078125 2.914062 -13.28125 3.5625 -13.28125 C 4.863281 -13.28125 5.515625 -12.390625 5.515625 -10.609375 C 5.515625 -10.097656 5.460938 -9.546875 5.359375 -8.953125 C 5.265625 -8.359375 5.175781 -7.828125 5.09375 -7.359375 L 5.171875 -7.359375 C 6.003906 -9.566406 6.832031 -11.101562 7.65625 -11.96875 C 8.476562 -12.84375 9.359375 -13.28125 10.296875 -13.28125 Z M 10.296875 -13.28125 "/></g></g></g><g fill="#545454" fill-opacity="1"><g transform="translate(547.535239, 150.261991)"><g><path d="M 7.796875 -18.234375 C 9.859375 -18.234375 11.40625 -17.867188 12.4375 -17.140625 C 13.476562 -16.421875 13.945312 -15.304688 13.84375 -13.796875 C 13.789062 -12.878906 13.382812 -12.039062 12.625 -11.28125 C 11.863281 -10.519531 10.800781 -10.015625 9.4375 -9.765625 L 9.4375 -9.71875 C 11.195312 -9.71875 12.539062 -9.328125 13.46875 -8.546875 C 14.394531 -7.765625 14.859375 -6.71875 14.859375 -5.40625 C 14.859375 -4.289062 14.582031 -3.328125 14.03125 -2.515625 C 13.488281 -1.703125 12.742188 -1.078125 11.796875 -0.640625 C 10.847656 -0.210938 9.765625 0 8.546875 0 L 1.046875 0 L 1.09375 -0.859375 C 1.695312 -0.878906 2.132812 -1.015625 2.40625 -1.265625 C 2.675781 -1.523438 2.835938 -1.84375 2.890625 -2.21875 C 2.953125 -2.59375 3.007812 -3.25 3.0625 -4.1875 L 3.640625 -15.09375 C 3.648438 -15.90625 3.707031 -16.59375 3.8125 -17.15625 L 1.921875 -17.046875 L 2 -18.1875 C 3.226562 -18.1875 4.144531 -18.195312 4.75 -18.21875 Z M 7.875 -17.3125 C 7.320312 -17.3125 6.898438 -17.234375 6.609375 -17.078125 C 6.328125 -16.921875 6.128906 -16.664062 6.015625 -16.3125 C 5.898438 -15.96875 5.828125 -15.457031 5.796875 -14.78125 L 5.53125 -9.953125 C 6.03125 -9.953125 6.664062 -9.96875 7.4375 -10 C 8.851562 -10.050781 9.894531 -10.472656 10.5625 -11.265625 C 11.226562 -12.054688 11.5625 -13.015625 11.5625 -14.140625 C 11.5625 -15.316406 11.203125 -16.140625 10.484375 -16.609375 C 9.765625 -17.078125 8.894531 -17.3125 7.875 -17.3125 Z M 8.15625 -9.015625 C 7.207031 -9.015625 6.316406 -8.988281 5.484375 -8.9375 L 5.171875 -3.09375 C 5.117188 -2.125 5.054688 -1.445312 4.984375 -1.0625 C 5.316406 -1.03125 5.941406 -1.015625 6.859375 -1.015625 L 7.75 -1.015625 C 9.1875 -1.015625 10.320312 -1.378906 11.15625 -2.109375 C 12 -2.835938 12.421875 -3.882812 12.421875 -5.25 C 12.421875 -6.5625 12.023438 -7.515625 11.234375 -8.109375 C 10.453125 -8.710938 9.425781 -9.015625 8.15625 -9.015625 Z M 8.15625 -9.015625 "/></g></g></g><g fill="#545454" fill-opacity="1"><g transform="translate(573.770532, 150.261991)"><g><path d="M 10.0625 -13.28125 C 10.59375 -13.28125 11.023438 -13.144531 11.359375 -12.875 C 11.703125 -12.601562 11.875 -12.234375 11.875 -11.765625 C 11.875 -11.441406 11.757812 -11.15625 11.53125 -10.90625 C 11.3125 -10.65625 11.023438 -10.53125 10.671875 -10.53125 C 10.367188 -10.53125 10.101562 -10.625 9.875 -10.8125 C 9.644531 -11 9.515625 -11.265625 9.484375 -11.609375 C 9.410156 -11.628906 9.316406 -11.640625 9.203125 -11.640625 C 8.472656 -11.640625 7.757812 -11.054688 7.0625 -9.890625 C 6.375 -8.734375 5.8125 -7.320312 5.375 -5.65625 C 4.945312 -4 4.734375 -2.488281 4.734375 -1.125 C 4.734375 -0.96875 4.75 -0.59375 4.78125 0 L 2.625 0 C 2.601562 -0.15625 2.59375 -0.378906 2.59375 -0.671875 C 2.59375 -1.734375 2.734375 -3.507812 3.015625 -6 L 3.359375 -9.015625 C 3.460938 -9.921875 3.515625 -10.519531 3.515625 -10.8125 C 3.515625 -11.175781 3.460938 -11.460938 3.359375 -11.671875 C 3.265625 -11.878906 3.082031 -11.984375 2.8125 -11.984375 C 2.476562 -11.984375 2.132812 -11.773438 1.78125 -11.359375 C 1.4375 -10.941406 1.144531 -10.304688 0.90625 -9.453125 L 0.1875 -9.609375 C 0.269531 -10.097656 0.453125 -10.628906 0.734375 -11.203125 C 1.023438 -11.773438 1.40625 -12.265625 1.875 -12.671875 C 2.351562 -13.078125 2.914062 -13.28125 3.5625 -13.28125 C 4.238281 -13.28125 4.722656 -13.0625 5.015625 -12.625 C 5.304688 -12.195312 5.453125 -11.570312 5.453125 -10.75 C 5.453125 -9.957031 5.320312 -8.910156 5.0625 -7.609375 L 5.140625 -7.609375 C 5.847656 -9.703125 6.609375 -11.171875 7.421875 -12.015625 C 8.242188 -12.859375 9.125 -13.28125 10.0625 -13.28125 Z M 10.0625 -13.28125 "/></g></g></g><g fill="#545454" fill-opacity="1"><g transform="translate(595.74694, 150.261991)"><g><path d="M 7.4375 -13.28125 C 8.363281 -13.28125 9.203125 -13.050781 9.953125 -12.59375 C 10.710938 -12.144531 11.304688 -11.492188 11.734375 -10.640625 C 12.160156 -9.785156 12.375 -8.769531 12.375 -7.59375 C 12.375 -6.164062 12.113281 -4.851562 11.59375 -3.65625 C 11.082031 -2.46875 10.347656 -1.515625 9.390625 -0.796875 C 8.429688 -0.078125 7.300781 0.28125 6 0.28125 C 4.351562 0.28125 3.109375 -0.257812 2.265625 -1.34375 C 1.429688 -2.425781 1.015625 -3.820312 1.015625 -5.53125 C 1.015625 -6.957031 1.273438 -8.257812 1.796875 -9.4375 C 2.316406 -10.613281 3.0625 -11.546875 4.03125 -12.234375 C 5 -12.929688 6.132812 -13.28125 7.4375 -13.28125 Z M 7.015625 -12.3125 C 6.253906 -12.3125 5.59375 -12.035156 5.03125 -11.484375 C 4.46875 -10.941406 4.035156 -10.195312 3.734375 -9.25 C 3.441406 -8.3125 3.296875 -7.265625 3.296875 -6.109375 C 3.296875 -4.671875 3.53125 -3.410156 4 -2.328125 C 4.46875 -1.242188 5.226562 -0.703125 6.28125 -0.703125 C 7.164062 -0.703125 7.890625 -1.039062 8.453125 -1.71875 C 9.015625 -2.394531 9.425781 -3.222656 9.6875 -4.203125 C 9.945312 -5.191406 10.078125 -6.15625 10.078125 -7.09375 C 10.078125 -8.550781 9.847656 -9.785156 9.390625 -10.796875 C 8.929688 -11.804688 8.140625 -12.3125 7.015625 -12.3125 Z M 7.015625 -12.3125 "/></g></g></g><g fill="#545454" fill-opacity="1"><g transform="translate(619.437285, 150.261991)"><g><path d="M 5.171875 -12.984375 L 9.296875 -12.984375 L 9.21875 -12 L 5.0625 -11.953125 L 4.890625 -10.296875 C 4.503906 -7.003906 4.3125 -4.671875 4.3125 -3.296875 C 4.3125 -2.617188 4.390625 -2.070312 4.546875 -1.65625 C 4.703125 -1.25 5.03125 -1.046875 5.53125 -1.046875 C 6.4375 -1.046875 7.253906 -1.648438 7.984375 -2.859375 L 8.65625 -2.421875 C 8.113281 -1.503906 7.550781 -0.820312 6.96875 -0.375 C 6.394531 0.0625 5.707031 0.28125 4.90625 0.28125 C 3.957031 0.28125 3.269531 0 2.84375 -0.5625 C 2.414062 -1.132812 2.203125 -1.875 2.203125 -2.78125 C 2.203125 -3.78125 2.265625 -5.097656 2.390625 -6.734375 C 2.515625 -8.378906 2.679688 -10.109375 2.890625 -11.921875 L 0.578125 -11.90625 L 0.65625 -12.984375 C 1.6875 -12.984375 2.519531 -13.289062 3.15625 -13.90625 C 3.800781 -14.53125 4.300781 -15.445312 4.65625 -16.65625 L 5.640625 -16.65625 Z M 5.171875 -12.984375 "/></g></g></g><g fill="#545454" fill-opacity="1"><g transform="translate(639.050535, 150.261991)"><g><path d="M 5.21875 -18.3125 C 4.945312 -16.65625 4.785156 -15.617188 4.734375 -15.203125 C 4.609375 -14.316406 4.460938 -13.035156 4.296875 -11.359375 C 4.128906 -9.691406 4.015625 -8.398438 3.953125 -7.484375 L 4.03125 -7.484375 C 4.84375 -9.679688 5.660156 -11.195312 6.484375 -12.03125 C 7.304688 -12.863281 8.191406 -13.28125 9.140625 -13.28125 C 10.117188 -13.28125 10.835938 -12.960938 11.296875 -12.328125 C 11.765625 -11.691406 12 -10.882812 12 -9.90625 C 12 -8.738281 11.851562 -7.070312 11.5625 -4.90625 C 11.375 -3.539062 11.28125 -2.640625 11.28125 -2.203125 C 11.28125 -1.828125 11.328125 -1.535156 11.421875 -1.328125 C 11.515625 -1.117188 11.703125 -1.015625 11.984375 -1.015625 C 12.304688 -1.015625 12.640625 -1.21875 12.984375 -1.625 C 13.335938 -2.03125 13.632812 -2.664062 13.875 -3.53125 L 14.53125 -3.359375 C 14.375 -2.523438 14.015625 -1.707031 13.453125 -0.90625 C 12.890625 -0.113281 12.144531 0.28125 11.21875 0.28125 C 10.445312 0.28125 9.90625 0.078125 9.59375 -0.328125 C 9.28125 -0.734375 9.125 -1.359375 9.125 -2.203125 C 9.125 -2.867188 9.234375 -4.023438 9.453125 -5.671875 C 9.492188 -5.890625 9.570312 -6.53125 9.6875 -7.59375 C 9.8125 -8.664062 9.875 -9.625 9.875 -10.46875 C 9.875 -10.863281 9.773438 -11.226562 9.578125 -11.5625 C 9.390625 -11.894531 9.070312 -12.0625 8.625 -12.0625 C 7.882812 -12.0625 7.125 -11.503906 6.34375 -10.390625 C 5.5625 -9.285156 4.914062 -7.894531 4.40625 -6.21875 C 3.90625 -4.550781 3.65625 -2.9375 3.65625 -1.375 C 3.65625 -1.050781 3.675781 -0.59375 3.71875 0 L 1.578125 0 C 1.566406 -0.15625 1.5625 -0.378906 1.5625 -0.671875 C 1.5625 -1.953125 1.707031 -4.453125 2 -8.171875 C 2.289062 -11.890625 2.578125 -14.703125 2.859375 -16.609375 C 2.890625 -16.816406 2.96875 -17.273438 3.09375 -17.984375 L 1.265625 -17.875 L 1.375 -18.921875 C 2.414062 -18.921875 3.160156 -18.976562 3.609375 -19.09375 C 4.054688 -19.21875 4.410156 -19.394531 4.671875 -19.625 L 5.4375 -19.625 Z M 5.21875 -18.3125 "/></g></g></g><g fill="#545454" fill-opacity="1"><g transform="translate(664.065303, 150.261991)"><g><path d="M 7.328125 -13.28125 C 8.367188 -13.28125 9.234375 -13.035156 9.921875 -12.546875 C 10.617188 -12.066406 10.96875 -11.316406 10.96875 -10.296875 C 10.96875 -9.003906 10.195312 -8.003906 8.65625 -7.296875 C 7.113281 -6.585938 5.328125 -6.117188 3.296875 -5.890625 C 3.296875 -4.265625 3.535156 -3.046875 4.015625 -2.234375 C 4.503906 -1.421875 5.253906 -1.015625 6.265625 -1.015625 C 7.054688 -1.015625 7.820312 -1.273438 8.5625 -1.796875 C 9.3125 -2.328125 9.96875 -3.113281 10.53125 -4.15625 L 11.375 -3.65625 C 10.65625 -2.289062 9.84375 -1.289062 8.9375 -0.65625 C 8.039062 -0.03125 7.003906 0.28125 5.828125 0.28125 C 4.234375 0.28125 3.03125 -0.210938 2.21875 -1.203125 C 1.414062 -2.203125 1.015625 -3.578125 1.015625 -5.328125 C 1.015625 -6.734375 1.25 -8.035156 1.71875 -9.234375 C 2.195312 -10.441406 2.910156 -11.414062 3.859375 -12.15625 C 4.816406 -12.90625 5.972656 -13.28125 7.328125 -13.28125 Z M 6.96875 -12.390625 C 5.851562 -12.390625 4.992188 -11.851562 4.390625 -10.78125 C 3.785156 -9.707031 3.429688 -8.390625 3.328125 -6.828125 C 4.835938 -7.035156 6.128906 -7.453125 7.203125 -8.078125 C 8.273438 -8.703125 8.8125 -9.484375 8.8125 -10.421875 C 8.8125 -10.992188 8.648438 -11.460938 8.328125 -11.828125 C 8.003906 -12.203125 7.550781 -12.390625 6.96875 -12.390625 Z M 6.96875 -12.390625 "/></g></g></g><g fill="#545454" fill-opacity="1"><g transform="translate(686.613024, 150.261991)"><g><path d="M 10.0625 -13.28125 C 10.59375 -13.28125 11.023438 -13.144531 11.359375 -12.875 C 11.703125 -12.601562 11.875 -12.234375 11.875 -11.765625 C 11.875 -11.441406 11.757812 -11.15625 11.53125 -10.90625 C 11.3125 -10.65625 11.023438 -10.53125 10.671875 -10.53125 C 10.367188 -10.53125 10.101562 -10.625 9.875 -10.8125 C 9.644531 -11 9.515625 -11.265625 9.484375 -11.609375 C 9.410156 -11.628906 9.316406 -11.640625 9.203125 -11.640625 C 8.472656 -11.640625 7.757812 -11.054688 7.0625 -9.890625 C 6.375 -8.734375 5.8125 -7.320312 5.375 -5.65625 C 4.945312 -4 4.734375 -2.488281 4.734375 -1.125 C 4.734375 -0.96875 4.75 -0.59375 4.78125 0 L 2.625 0 C 2.601562 -0.15625 2.59375 -0.378906 2.59375 -0.671875 C 2.59375 -1.734375 2.734375 -3.507812 3.015625 -6 L 3.359375 -9.015625 C 3.460938 -9.921875 3.515625 -10.519531 3.515625 -10.8125 C 3.515625 -11.175781 3.460938 -11.460938 3.359375 -11.671875 C 3.265625 -11.878906 3.082031 -11.984375 2.8125 -11.984375 C 2.476562 -11.984375 2.132812 -11.773438 1.78125 -11.359375 C 1.4375 -10.941406 1.144531 -10.304688 0.90625 -9.453125 L 0.1875 -9.609375 C 0.269531 -10.097656 0.453125 -10.628906 0.734375 -11.203125 C 1.023438 -11.773438 1.40625 -12.265625 1.875 -12.671875 C 2.351562 -13.078125 2.914062 -13.28125 3.5625 -13.28125 C 4.238281 -13.28125 4.722656 -13.0625 5.015625 -12.625 C 5.304688 -12.195312 5.453125 -11.570312 5.453125 -10.75 C 5.453125 -9.957031 5.320312 -8.910156 5.0625 -7.609375 L 5.140625 -7.609375 C 5.847656 -9.703125 6.609375 -11.171875 7.421875 -12.015625 C 8.242188 -12.859375 9.125 -13.28125 10.0625 -13.28125 Z M 10.0625 -13.28125 "/></g></g></g><g fill="#000000" fill-opacity="1"><g transform="translate(202.325386, 92.509854)"><g><path d="M 33.359375 -39.5 L 35.328125 -39.5 C 37.609375 -39.5 39.976562 -29.273438 42.4375 -8.828125 L 44.15625 0.484375 L 41.453125 0.484375 C 40.960938 0.484375 40.0625 -0.492188 38.75 -2.453125 L 37.78125 -10.0625 C 36.144531 -23.632812 35.082031 -30.421875 34.59375 -30.421875 C 32.957031 -26.984375 29.03125 -17.171875 22.8125 -0.984375 C 21.175781 -1.960938 19.296875 -8.257812 17.171875 -19.875 C 16.679688 -22.8125 16.4375 -25.265625 16.4375 -27.234375 L 15.703125 -29.921875 C 15.703125 -30.742188 15.617188 -31.238281 15.453125 -31.40625 L 15.453125 -30.90625 C 15.285156 -30.09375 14.628906 -27.554688 13.484375 -23.296875 C 11.691406 -19.703125 8.75 -12.753906 4.65625 -2.453125 L 2.703125 -2.453125 C 1.710938 -2.453125 1.21875 -2.941406 1.21875 -3.921875 L 1.21875 -4.421875 C 4 -10.628906 8.335938 -21.664062 14.234375 -37.53125 L 15.9375 -38.015625 L 16.921875 -38.015625 C 18.234375 -37.035156 20.195312 -28.78125 22.8125 -13.25 L 23.0625 -12.515625 C 24.851562 -15.296875 28.039062 -23.304688 32.625 -36.546875 Z M 33.359375 -39.5 "/></g></g></g><g fill="#000000" fill-opacity="1"><g transform="translate(249.41718, 92.509854)"><g><path d="M 16.6875 -39.984375 C 22.894531 -38.671875 26 -36.132812 26 -32.375 C 26.332031 -29.59375 24.863281 -26.816406 21.59375 -24.046875 C 28.457031 -24.046875 32.21875 -20.691406 32.875 -13.984375 C 33.6875 -7.109375 28.859375 -2.53125 18.390625 -0.25 C 15.941406 0.0820312 14.390625 0.25 13.734375 0.25 L 5.15625 -0.25 C 4.820312 -2.207031 4.65625 -6.457031 4.65625 -13 L 4.65625 -20.109375 C 4.65625 -20.441406 4.65625 -20.9375 4.65625 -21.59375 C 4.5 -33.6875 5.238281 -39.734375 6.875 -39.734375 Z M 8.828125 -35.8125 L 8.578125 -33.609375 C 8.421875 -30.828125 8.34375 -27.3125 8.34375 -23.0625 L 9.328125 -22.5625 C 12.921875 -22.5625 16.84375 -24.851562 21.09375 -29.4375 C 21.914062 -31.394531 22.328125 -32.785156 22.328125 -33.609375 C 21.671875 -35.566406 19.625 -36.546875 16.1875 -36.546875 L 12.265625 -36.546875 C 10.460938 -36.222656 9.316406 -35.976562 8.828125 -35.8125 Z M 8.34375 -16.1875 L 8.34375 -5.15625 C 8.664062 -4.007812 11.769531 -3.765625 17.65625 -4.421875 C 25.1875 -6.378906 28.867188 -9.566406 28.703125 -13.984375 L 28.453125 -15.9375 C 27.148438 -18.394531 25.023438 -19.785156 22.078125 -20.109375 L 17.421875 -19.875 C 13.328125 -19.382812 10.300781 -18.15625 8.34375 -16.1875 Z M 8.34375 -16.1875 "/></g></g></g><g fill="#000000" fill-opacity="1"><g transform="translate(284.000216, 92.509854)"><g><path d="M 13.984375 -26.734375 C 21.015625 -26.410156 24.773438 -21.832031 25.265625 -13 C 24.941406 -5.3125 20.851562 -0.894531 13 0.25 C 5.96875 0.25 2.367188 -4.082031 2.203125 -12.75 C 3.515625 -21.582031 6.867188 -26.242188 12.265625 -26.734375 Z M 6.625 -15.203125 L 6.375 -11.03125 C 6.539062 -7.113281 8.75 -4.582031 13 -3.4375 C 18.5625 -5.070312 21.34375 -8.175781 21.34375 -12.75 C 22.320312 -18.644531 19.703125 -22.082031 13.484375 -23.0625 C 9.234375 -21.914062 6.945312 -19.296875 6.625 -15.203125 Z M 6.625 -15.203125 "/></g></g></g><g fill="#000000" fill-opacity="1"><g transform="translate(311.715699, 92.509854)"><g><path d="M 16.4375 -26.25 C 19.875 -26.414062 22.65625 -24.535156 24.78125 -20.609375 C 24.445312 -15.859375 23.875 -12.421875 23.0625 -10.296875 L 23.546875 -7.609375 C 23.878906 -6.460938 24.535156 -5.234375 25.515625 -3.921875 C 26.816406 -2.617188 27.46875 -1.640625 27.46875 -0.984375 L 23.796875 0 C 22.160156 -1.144531 20.769531 -3.269531 19.625 -6.375 C 15.863281 -1.957031 12.59375 0.164062 9.8125 0 C 5.394531 -0.65625 2.859375 -3.351562 2.203125 -8.09375 C 2.859375 -17.738281 5.882812 -23.707031 11.28125 -26 C 13.40625 -26.488281 15.125 -26.570312 16.4375 -26.25 Z M 6.125 -11.78125 L 6.625 -7.84375 C 7.113281 -5.882812 7.847656 -4.90625 8.828125 -4.90625 L 10.796875 -4.90625 C 14.222656 -4.90625 17.164062 -8.175781 19.625 -14.71875 L 20.609375 -19.875 C 19.628906 -21.832031 18.070312 -22.8125 15.9375 -22.8125 L 15.703125 -22.8125 C 10.796875 -22.8125 7.601562 -19.132812 6.125 -11.78125 Z M 6.125 -11.78125 "/></g></g></g><g fill="#000000" fill-opacity="1"><g transform="translate(340.166991, 92.509854)"><g><path d="M 17.65625 -26.25 L 17.90625 -26.25 C 21.34375 -25.59375 23.0625 -24.039062 23.0625 -21.59375 L 20.109375 -19.875 C 18.960938 -22 17.164062 -22.570312 14.71875 -21.59375 C 9.320312 -16.84375 6.953125 -11.195312 7.609375 -4.65625 L 7.609375 -1.46875 C 7.609375 -0.488281 6.953125 0 5.640625 0 L 5.15625 0 C 4.5 0 3.925781 -0.570312 3.4375 -1.71875 L 3.4375 -4.421875 C 3.4375 -4.742188 3.679688 -8.582031 4.171875 -15.9375 L 4.171875 -17.90625 C 4.171875 -19.539062 3.515625 -21.832031 2.203125 -24.78125 C 2.859375 -26.082031 4.25 -26.734375 6.375 -26.734375 L 6.875 -24.28125 C 7.03125 -22.644531 7.273438 -21.582031 7.609375 -21.09375 L 9.078125 -21.09375 C 12.015625 -24.53125 14.875 -26.25 17.65625 -26.25 Z M 17.65625 -26.25 "/></g></g></g><g fill="#000000" fill-opacity="1"><g transform="translate(363.712888, 92.509854)"><g><path d="M 25.015625 -40.96875 L 26.734375 -40.71875 C 27.878906 -40.71875 28.453125 -39.984375 28.453125 -38.515625 C 26.328125 -29.515625 25.179688 -21.421875 25.015625 -14.234375 C 25.179688 -7.691406 27.390625 -4.335938 31.640625 -4.171875 L 32.625 -2.203125 L 32.625 -1.71875 C 32.625 -1.0625 31.804688 -0.242188 30.171875 0.734375 C 25.265625 -0.410156 22.238281 -3.109375 21.09375 -7.359375 C 19.457031 -4.578125 16.84375 -2.453125 13.25 -0.984375 L 11.03125 -0.484375 C 4.988281 -0.816406 2.128906 -4.332031 2.453125 -11.03125 C 3.429688 -20.351562 7.191406 -25.585938 13.734375 -26.734375 C 17.984375 -27.390625 20.601562 -26.410156 21.59375 -23.796875 C 22.082031 -27.390625 23.222656 -33.113281 25.015625 -40.96875 Z M 6.875 -10.796875 C 6.875 -6.867188 8.015625 -4.90625 10.296875 -4.90625 C 14.710938 -6.21875 17.984375 -10.710938 20.109375 -18.390625 C 20.109375 -21.015625 19.046875 -22.648438 16.921875 -23.296875 L 14.96875 -23.296875 C 10.875 -22.648438 8.175781 -18.484375 6.875 -10.796875 Z M 6.875 -10.796875 "/></g></g></g><g fill="#000000" fill-opacity="1"><g transform="translate(395.352687, 92.509854)"><g/></g></g><g fill="#000000" fill-opacity="1"><g transform="translate(412.76684, 92.509854)"><g><path d="M 33.359375 -39.5 L 35.328125 -39.5 C 37.609375 -39.5 39.976562 -29.273438 42.4375 -8.828125 L 44.15625 0.484375 L 41.453125 0.484375 C 40.960938 0.484375 40.0625 -0.492188 38.75 -2.453125 L 37.78125 -10.0625 C 36.144531 -23.632812 35.082031 -30.421875 34.59375 -30.421875 C 32.957031 -26.984375 29.03125 -17.171875 22.8125 -0.984375 C 21.175781 -1.960938 19.296875 -8.257812 17.171875 -19.875 C 16.679688 -22.8125 16.4375 -25.265625 16.4375 -27.234375 L 15.703125 -29.921875 C 15.703125 -30.742188 15.617188 -31.238281 15.453125 -31.40625 L 15.453125 -30.90625 C 15.285156 -30.09375 14.628906 -27.554688 13.484375 -23.296875 C 11.691406 -19.703125 8.75 -12.753906 4.65625 -2.453125 L 2.703125 -2.453125 C 1.710938 -2.453125 1.21875 -2.941406 1.21875 -3.921875 L 1.21875 -4.421875 C 4 -10.628906 8.335938 -21.664062 14.234375 -37.53125 L 15.9375 -38.015625 L 16.921875 -38.015625 C 18.234375 -37.035156 20.195312 -28.78125 22.8125 -13.25 L 23.0625 -12.515625 C 24.851562 -15.296875 28.039062 -23.304688 32.625 -36.546875 Z M 33.359375 -39.5 "/></g></g></g><g fill="#000000" fill-opacity="1"><g transform="translate(459.858634, 92.509854)"><g><path d="M 13.984375 -26.734375 C 21.015625 -26.410156 24.773438 -21.832031 25.265625 -13 C 24.941406 -5.3125 20.851562 -0.894531 13 0.25 C 5.96875 0.25 2.367188 -4.082031 2.203125 -12.75 C 3.515625 -21.582031 6.867188 -26.242188 12.265625 -26.734375 Z M 6.625 -15.203125 L 6.375 -11.03125 C 6.539062 -7.113281 8.75 -4.582031 13 -3.4375 C 18.5625 -5.070312 21.34375 -8.175781 21.34375 -12.75 C 22.320312 -18.644531 19.703125 -22.082031 13.484375 -23.0625 C 9.234375 -21.914062 6.945312 -19.296875 6.625 -15.203125 Z M 6.625 -15.203125 "/></g></g></g><g fill="#000000" fill-opacity="1"><g transform="translate(487.574116, 92.509854)"><g><path d="M 8.09375 -26.25 C 8.914062 -26.25 9.328125 -25.429688 9.328125 -23.796875 C 7.523438 -18.722656 6.539062 -13.328125 6.375 -7.609375 L 7.359375 -5.640625 C 13.578125 -2.046875 18.070312 -7.929688 20.84375 -23.296875 C 21.34375 -24.117188 21.59375 -24.773438 21.59375 -25.265625 L 23.796875 -25.265625 C 23.796875 -24.773438 23.957031 -24.039062 24.28125 -23.0625 C 22.976562 -16.675781 22.328125 -11.523438 22.328125 -7.609375 C 22.328125 -7.273438 23.222656 -5.144531 25.015625 -1.21875 L 25.015625 0 L 24.046875 0 C 21.910156 0 20.109375 -1.796875 18.640625 -5.390625 C 16.515625 -1.628906 13.410156 0.0820312 9.328125 -0.25 C 5.234375 -1.882812 3.1875 -4.09375 3.1875 -6.875 L 3.1875 -7.609375 C 3.1875 -10.054688 3.921875 -15.039062 5.390625 -22.5625 C 2.117188 -22.5625 1.710938 -23.300781 4.171875 -24.78125 C 5.472656 -25.757812 6.78125 -26.25 8.09375 -26.25 Z M 8.09375 -26.25 "/></g></g></g><g fill="#000000" fill-opacity="1"><g transform="translate(515.780139, 92.509854)"><g><path d="M 11.53125 -26.984375 C 14.632812 -26.984375 16.757812 -25.753906 17.90625 -23.296875 L 17.90625 -22.8125 C 17.414062 -22.8125 15.78125 -23.222656 13 -24.046875 L 12.265625 -24.046875 C 9.648438 -23.546875 7.851562 -22.234375 6.875 -20.109375 L 8.34375 -17.65625 C 14.882812 -13.894531 18.15625 -11.28125 18.15625 -9.8125 C 18.644531 -8.832031 18.890625 -7.851562 18.890625 -6.875 C 17.910156 -1.476562 14.800781 0.894531 9.5625 0.25 C 4.164062 0.25 1.304688 -2.613281 0.984375 -8.34375 L 2.453125 -8.578125 C 4.253906 -4.492188 6.789062 -3.023438 10.0625 -4.171875 C 12.675781 -3.679688 14.226562 -4.90625 14.71875 -7.84375 C 12.757812 -10.625 10.507812 -12.628906 7.96875 -13.859375 C 5.4375 -15.085938 4.003906 -17.007812 3.671875 -19.625 C 3.671875 -23.875 6.289062 -26.328125 11.53125 -26.984375 Z M 11.53125 -26.984375 "/></g></g></g><g fill="#000000" fill-opacity="1"><g transform="translate(537.363877, 92.509854)"><g><path d="M 14.234375 -26.734375 C 20.117188 -26.734375 23.550781 -24.523438 24.53125 -20.109375 C 24.53125 -16.191406 18.722656 -13.164062 7.109375 -11.03125 L 7.109375 -8.828125 C 8.085938 -5.890625 9.890625 -4.335938 12.515625 -4.171875 C 14.960938 -3.515625 19.128906 -4.578125 25.015625 -7.359375 L 25.015625 -4.421875 C 21.421875 -1.304688 17.660156 0.25 13.734375 0.25 C 5.890625 0.0820312 2.046875 -4.578125 2.203125 -13.734375 C 3.347656 -21.097656 7.359375 -25.429688 14.234375 -26.734375 Z M 7.109375 -14.96875 L 8.828125 -14.96875 C 13.898438 -14.96875 17.828125 -16.925781 20.609375 -20.84375 L 20.609375 -21.34375 C 20.609375 -22.320312 19.867188 -23.054688 18.390625 -23.546875 L 16.4375 -23.546875 C 10.550781 -22.078125 7.441406 -19.21875 7.109375 -14.96875 Z M 7.109375 -14.96875 "/></g></g></g><g fill="#000000" fill-opacity="1"><g transform="translate(564.83409, 92.509854)"><g/></g></g><g fill="#000000" fill-opacity="1"><g transform="translate(582.248243, 92.509854)"><g><path d="M 15.9375 -39.5 C 22.320312 -40.800781 26.738281 -38.914062 29.1875 -33.84375 L 27.234375 -33.109375 C 24.285156 -35.566406 20.847656 -36.382812 16.921875 -35.5625 C 10.222656 -31.3125 6.875 -26 6.875 -19.625 C 6.21875 -11.445312 8.914062 -6.378906 14.96875 -4.421875 L 17.65625 -4.171875 C 21.582031 -4.003906 25.671875 -6.289062 29.921875 -11.03125 L 31.640625 -10.796875 C 32.617188 -9.160156 32.703125 -8.175781 31.890625 -7.84375 C 27.304688 -2.289062 22.238281 0.484375 16.6875 0.484375 L 15.703125 0.484375 C 6.378906 -1.472656 1.878906 -7.765625 2.203125 -18.390625 C 1.710938 -27.222656 5.640625 -34.007812 13.984375 -38.75 C 14.640625 -39.25 15.289062 -39.5 15.9375 -39.5 Z M 15.9375 -39.5 "/></g></g></g><g fill="#000000" fill-opacity="1"><g transform="translate(616.83128, 92.509854)"><g><path d="M 5.640625 -39 C 7.597656 -40.144531 8.90625 -39.898438 9.5625 -38.265625 C 9.238281 -37.285156 8.992188 -34.914062 8.828125 -31.15625 L 7.359375 -14.234375 C 6.703125 -9.648438 7.4375 -6.785156 9.5625 -5.640625 L 12.265625 -5.890625 L 14.96875 -8.34375 C 15.289062 -8.34375 16.023438 -7.769531 17.171875 -6.625 C 17.171875 -4.65625 14.878906 -2.445312 10.296875 0 C 4.578125 -0.164062 2.453125 -5.316406 3.921875 -15.453125 C 3.921875 -18.066406 4.492188 -25.914062 5.640625 -39 Z M 5.640625 -39 "/></g></g></g><g fill="#000000" fill-opacity="1"><g transform="translate(633.754893, 92.509854)"><g><path d="M 6.125 -34.34375 C 7.757812 -33.6875 8.660156 -32.785156 8.828125 -31.640625 L 8.828125 -30.90625 C 8.828125 -29.925781 8.5 -29.4375 7.84375 -29.4375 L 6.875 -29.4375 C 4.90625 -30.75 3.921875 -32.300781 3.921875 -34.09375 C 5.066406 -34.257812 5.800781 -34.34375 6.125 -34.34375 Z M 5.15625 -26.734375 L 5.890625 -26.734375 C 6.546875 -26.734375 7.441406 -26.160156 8.578125 -25.015625 C 7.273438 -20.109375 6.378906 -14.796875 5.890625 -9.078125 C 5.722656 -5.472656 6.539062 -3.921875 8.34375 -4.421875 L 11.28125 -5.640625 L 12.265625 -5.640625 C 12.265625 -3.515625 11.363281 -1.71875 9.5625 -0.25 C 4.65625 1.226562 2.445312 -1.546875 2.9375 -8.578125 C 3.269531 -15.285156 3.84375 -20.113281 4.65625 -23.0625 L 1.71875 -20.84375 L 1.21875 -24.046875 Z M 5.15625 -26.734375 "/></g></g></g><g fill="#000000" fill-opacity="1"><g transform="translate(647.49, 92.509854)"><g><path d="M 12.515625 -26.5 C 19.054688 -26.5 22.160156 -25.023438 21.828125 -22.078125 L 21.828125 -21.09375 L 21.09375 -21.09375 C 18.644531 -22.40625 16.679688 -23.0625 15.203125 -23.0625 L 13.484375 -23.0625 C 8.085938 -21.582031 5.71875 -17.492188 6.375 -10.796875 C 6.375 -7.847656 7.925781 -5.722656 11.03125 -4.421875 C 15.445312 -3.273438 19.535156 -4.007812 23.296875 -6.625 L 22.8125 -3.671875 C 21.5 -1.222656 17.898438 0.0820312 12.015625 0.25 C 5.316406 -1.0625 2.128906 -5.234375 2.453125 -12.265625 C 2.453125 -19.617188 5.804688 -24.363281 12.515625 -26.5 Z M 12.515625 -26.5 "/></g></g></g><g fill="#000000" fill-opacity="1"><g transform="translate(672.016976, 92.509854)"><g><path d="M 7.84375 -38.015625 L 8.828125 -39 C 9.648438 -39.164062 10.46875 -38.921875 11.28125 -38.265625 C 10.625 -32.546875 10.050781 -28.050781 9.5625 -24.78125 C 12.175781 -26.570312 14.300781 -27.46875 15.9375 -27.46875 C 21.007812 -26.65625 22.894531 -24.53125 21.59375 -21.09375 C 21.425781 -16.519531 18.476562 -13.820312 12.75 -13 L 14.234375 -10.546875 C 17.503906 -5.640625 20.117188 -3.1875 22.078125 -3.1875 C 22.890625 -3.1875 23.546875 -3.1875 24.046875 -3.1875 L 25.015625 -3.1875 C 26.003906 -2.53125 26.5 -1.957031 26.5 -1.46875 L 26.5 -0.984375 C 25.507812 0.648438 24.035156 1.46875 22.078125 1.46875 C 19.617188 1.800781 14.710938 -3.179688 7.359375 -13.484375 C 8.015625 -17.578125 7.601562 -12.59375 6.125 1.46875 L 4.171875 1.46875 C 3.347656 1.46875 2.9375 0.894531 2.9375 -0.25 L 2.453125 -1.96875 C 4.085938 -9.488281 5.882812 -21.503906 7.84375 -38.015625 Z M 8.828125 -20.109375 L 8.34375 -16.4375 C 8.007812 -15.457031 9.398438 -15.128906 12.515625 -15.453125 C 15.785156 -16.429688 17.582031 -18.3125 17.90625 -21.09375 L 17.90625 -23.0625 C 17.90625 -23.875 17.003906 -24.035156 15.203125 -23.546875 C 12.921875 -23.546875 10.796875 -22.398438 8.828125 -20.109375 Z M 8.828125 -20.109375 "/></g></g></g></svg>